<svg width="64" height="64" xmlns="http://www.w3.org/2000/svg" xmlns:xlink="http://www.w3.org/1999/xlink"><defs><linearGradient x1="50%" y1="95.423%" x2="50%" y2="0%" id="b"><stop stop-color="#3967FF" offset="0%"/><stop stop-color="#B500FE" offset="100%"/></linearGradient><linearGradient x1="50%" y1="0%" x2="50%" y2="100%" id="f"><stop stop-color="#3967FF" offset="0%"/><stop stop-color="#B500FE" offset="100%"/></linearGradient><linearGradient x1="50%" y1="0%" x2="50%" y2="100%" id="g"><stop stop-color="#1C98FF" offset="0%"/><stop stop-color="#574AE4" offset="100%"/></linearGradient><linearGradient x1="50%" y1="0%" x2="50%" y2="100%" id="h"><stop stop-color="#F900B8" offset="0%"/><stop stop-color="#AE48C0" offset="100%"/></linearGradient><linearGradient x1="100%" y1="15.127%" x2="26.765%" y2="100%" id="j"><stop stop-color="#FF4695" offset="0%"/><stop stop-color="#CC34E7" offset="100%"/></linearGradient><path d="M29.861 0c16.492 0 29.861 13.37 29.861 29.861 0 16.492-13.37 29.861-29.86 29.861C13.368 59.722 0 46.352 0 29.862 0 13.368 13.37 0 29.861 0zm0 10.694c-10.585 0-19.167 8.582-19.167 19.167 0 10.586 8.582 19.167 19.167 19.167 10.586 0 19.167-8.581 19.167-19.167 0-10.585-8.581-19.167-19.167-19.167z" id="a"/><path d="M29.886 18.608l17.664 35.33a29.727 29.727 0 01-17.664 5.782 29.727 29.727 0 01-17.664-5.783l17.664-35.329z" id="e"/><filter x="-81.4%" y="-100.8%" width="262.8%" height="281.6%" filterUnits="objectBoundingBox" id="d"><feMorphology radius=".5" operator="dilate" in="SourceAlpha" result="shadowSpreadOuter1"/><feOffset in="shadowSpreadOuter1" result="shadowOffsetOuter1"/><feGaussianBlur stdDeviation="9" in="shadowOffsetOuter1" result="shadowBlurOuter1"/><feColorMatrix values="0 0 0 0 0.0392156863 0 0 0 0 0.0509803922 0 0 0 0 0.145098039 0 0 0 1 0" in="shadowBlurOuter1"/></filter><circle id="i" cx="30" cy="24.444" r="5.278"/></defs><g fill="none" fill-rule="evenodd"><g transform="rotate(-135 31.414 30.586)"><mask id="c" fill="#fff"><use xlink:href="#a"/></mask><use fill="url(#b)" xlink:href="#a"/><g mask="url(#c)"><use fill="#000" filter="url(#d)" xlink:href="#e"/><use fill="url(#f)" xlink:href="#e"/></g></g><path d="M30 33.51c2.386 0 4.542-.933 6.081-2.435L47.55 54.013a29.727 29.727 0 01-17.664 5.782 29.727 29.727 0 01-17.664-5.782l11.545-23.09c1.548 1.591 3.767 2.588 6.233 2.588z" fill="url(#g)" transform="rotate(-135 31.414 30.586)"/><g transform="rotate(-135 31.414 30.586)"><use fill="url(#h)" xlink:href="#i"/><use fill="url(#j)" xlink:href="#i"/></g></g></svg>